<svg width="16" height="16" viewBox="0 0 16 16" fill="none" xmlns="http://www.w3.org/2000/svg">
<g clip-path="url(#clip0_2_2)">
<path d="M4.9375 4.42105C5.45006 4.58548 6.25 4.84211 6.25 4.84211L5.8125 6.52632L4.9375 7.78947L5.8125 9.47368L6.25 12H6.6875C6.6875 12 6.70887 10.853 7.125 10.3158C7.86426 9.36138 9.13343 9.30622 10.1875 9.89474C11.0334 10.367 11.5 12 11.5 12H12.8125C12.8125 12 13.25 11.5285 13.25 11.1579C13.25 10.7873 12.8125 10.3158 12.8125 10.3158L13.6875 9.89474C14.125 9.33333 15 8.07895 15 7.78947C15 7.5 14.2285 5.68421 13.6875 5.26316C13.1465 4.84211 11.6458 4.2807 10.625 4C9.60417 3.7193 7.15861 4.25662 4.9375 4.42105Z" fill="#AB805D"/>
<path d="M1.875 4.42105C1.38635 4.76937 1 5.68421 1 5.68421V6.10526C1 6.10526 1.01684 7.05927 1.4375 7.36842C2.00391 7.78469 2.48759 6.88233 3.1875 6.94737C3.94267 7.01754 4.9375 7.78947 4.9375 7.78947L5.8125 6.52632L6.25 4.84211L4.9375 4.42105C4.80985 4.22122 4.70458 4.1199 4.5 4C4.05779 3.74083 3.1875 4 3.1875 4C3.1875 4 2.31333 4.1086 1.875 4.42105Z" fill="#AB805D"/>
<path d="M4.9375 4.42105C4.80985 4.22122 4.70458 4.1199 4.5 4C4.05779 3.74083 3.1875 4 3.1875 4C3.1875 4 2.31333 4.1086 1.875 4.42105C1.38635 4.76937 1 5.68421 1 5.68421V6.10526C1 6.10526 1.01684 7.05927 1.4375 7.36842C2.00391 7.78469 2.48759 6.88233 3.1875 6.94737C3.94267 7.01754 4.9375 7.78947 4.9375 7.78947M4.9375 4.42105C5.45006 4.58548 6.25 4.84211 6.25 4.84211M4.9375 4.42105C7.15861 4.25662 9.60417 3.7193 10.625 4C11.6458 4.2807 13.1465 4.84211 13.6875 5.26316C14.2285 5.68421 15 7.5 15 7.78947C15 8.07895 14.125 9.33333 13.6875 9.89474L12.8125 10.3158C12.8125 10.3158 13.25 10.7873 13.25 11.1579C13.25 11.5285 12.8125 12 12.8125 12H11.5C11.5 12 11.0334 10.367 10.1875 9.89474C9.13343 9.30622 7.86426 9.36138 7.125 10.3158C6.70887 10.853 6.6875 12 6.6875 12H6.25L5.8125 9.47368L4.9375 7.78947M4.9375 4.42105L6.25 4.84211M6.25 4.84211L5.8125 6.52632L4.9375 7.78947" stroke="#343434"/>
<path d="M2.125 9.15321C2.27145 9.20019 2.5 9.27351 2.5 9.27351L2.375 9.75472L2.125 10.1156L2.375 10.5968L2.5 11.3186H2.625C2.625 11.3186 2.63111 10.9909 2.75 10.8374C2.96122 10.5647 3.32384 10.549 3.625 10.7171C3.86669 10.8521 4 11.3186 4 11.3186H4.375C4.375 11.3186 4.5 11.1839 4.5 11.078C4.5 10.9721 4.375 10.8374 4.375 10.8374L4.625 10.7171C4.75 10.5567 5 10.1983 5 10.1156C5 10.0329 4.77957 9.51411 4.625 9.39381C4.47043 9.27351 4.04167 9.11311 3.75 9.03291C3.45833 8.95271 2.7596 9.10623 2.125 9.15321Z" fill="#AB805D"/>
<path d="M1.25 9.15321C1.11039 9.25273 1 9.51411 1 9.51411V9.63441C1 9.63441 1.00481 9.90699 1.125 9.99532C1.28683 10.1143 1.42503 9.85643 1.625 9.87502C1.84076 9.89507 2.125 10.1156 2.125 10.1156L2.375 9.75472L2.5 9.27351L2.125 9.15321C2.08853 9.09612 2.05845 9.06717 2 9.03291C1.87365 8.95886 1.625 9.03291 1.625 9.03291C1.625 9.03291 1.37524 9.06394 1.25 9.15321Z" fill="#AB805D"/>
<path d="M2.125 9.15321C2.08853 9.09612 2.05845 9.06717 2 9.03291C1.87365 8.95886 1.625 9.03291 1.625 9.03291C1.625 9.03291 1.37524 9.06394 1.25 9.15321C1.11039 9.25273 1 9.51411 1 9.51411V9.63441C1 9.63441 1.00481 9.90699 1.125 9.99532C1.28683 10.1143 1.42503 9.85643 1.625 9.87502C1.84076 9.89507 2.125 10.1156 2.125 10.1156M2.125 9.15321C2.27145 9.20019 2.5 9.27351 2.5 9.27351M2.125 9.15321C2.7596 9.10623 3.45833 8.95271 3.75 9.03291C4.04167 9.11311 4.47043 9.27351 4.625 9.39381C4.77957 9.51411 5 10.0329 5 10.1156C5 10.1983 4.75 10.5567 4.625 10.7171L4.375 10.8374C4.375 10.8374 4.5 10.9721 4.5 11.078C4.5 11.1839 4.375 11.3186 4.375 11.3186H4C4 11.3186 3.86669 10.8521 3.625 10.7171C3.32384 10.549 2.96122 10.5647 2.75 10.8374C2.63111 10.9909 2.625 11.3186 2.625 11.3186H2.5L2.375 10.5968L2.125 10.1156M2.125 9.15321L2.5 9.27351M2.5 9.27351L2.375 9.75472L2.125 10.1156" stroke="#343434" stroke-width="0.5"/>
<path d="M1.125 11.1532C1.27145 11.2002 1.5 11.2735 1.5 11.2735L1.375 11.7547L1.125 12.1156L1.375 12.5968L1.5 13.3186H1.625C1.625 13.3186 1.63111 12.9909 1.75 12.8374C1.96122 12.5647 2.32384 12.549 2.625 12.7171C2.86669 12.8521 3 13.3186 3 13.3186H3.375C3.375 13.3186 3.5 13.1839 3.5 13.078C3.5 12.9721 3.375 12.8374 3.375 12.8374L3.625 12.7171C3.75 12.5567 4 12.1983 4 12.1156C4 12.0329 3.77957 11.5141 3.625 11.3938C3.47043 11.2735 3.04167 11.1131 2.75 11.0329C2.45833 10.9527 1.7596 11.1062 1.125 11.1532Z" fill="#AB805D"/>
<path d="M0.25 11.1532C0.110386 11.2527 0 11.5141 0 11.5141V11.6344C0 11.6344 0.00481162 11.907 0.125 11.9953C0.286831 12.1143 0.425027 11.8564 0.625 11.875C0.840764 11.8951 1.125 12.1156 1.125 12.1156L1.375 11.7547L1.5 11.2735L1.125 11.1532C1.08853 11.0961 1.05845 11.0672 1 11.0329C0.873654 10.9589 0.625 11.0329 0.625 11.0329C0.625 11.0329 0.375237 11.0639 0.25 11.1532Z" fill="#AB805D"/>
<path d="M1.125 11.1532C1.08853 11.0961 1.05845 11.0672 1 11.0329C0.873654 10.9589 0.625 11.0329 0.625 11.0329C0.625 11.0329 0.375237 11.0639 0.25 11.1532C0.110386 11.2527 0 11.5141 0 11.5141V11.6344C0 11.6344 0.00481162 11.907 0.125 11.9953C0.286831 12.1143 0.425027 11.8564 0.625 11.875C0.840764 11.8951 1.125 12.1156 1.125 12.1156M1.125 11.1532C1.27145 11.2002 1.5 11.2735 1.5 11.2735M1.125 11.1532C1.7596 11.1062 2.45833 10.9527 2.75 11.0329C3.04167 11.1131 3.47043 11.2735 3.625 11.3938C3.77957 11.5141 4 12.0329 4 12.1156C4 12.1983 3.75 12.5567 3.625 12.7171L3.375 12.8374C3.375 12.8374 3.5 12.9721 3.5 13.078C3.5 13.1839 3.375 13.3186 3.375 13.3186H3C3 13.3186 2.86669 12.8521 2.625 12.7171C2.32384 12.549 1.96122 12.5647 1.75 12.8374C1.63111 12.9909 1.625 13.3186 1.625 13.3186H1.5L1.375 12.5968L1.125 12.1156M1.125 11.1532L1.5 11.2735M1.5 11.2735L1.375 11.7547L1.125 12.1156" stroke="#343434" stroke-width="0.5"/>
</g>
<defs>
<clipPath id="clip0_2_2">
<rect width="16" height="16" fill="white"/>
</clipPath>
</defs>
</svg>
